<svg width="40" height="40" fill="none" xmlns="http://www.w3.org/2000/svg"><circle cx="20" cy="20" r="17.75" stroke="#F9F9F9" stroke-width="4.5"/><path d="M15.167 27.5H11.54V15.816h3.628V27.5zm-1.816-13.277c-1.16 0-2.101-.961-2.101-2.121a2.101 2.101 0 014.202 0c0 1.16-.941 2.12-2.1 2.12zM28.746 27.5h-3.62v-5.688c0-1.355-.028-3.093-1.887-3.093-1.886 0-2.175 1.472-2.175 2.996V27.5H17.44V15.816h3.48v1.594h.05c.485-.918 1.668-1.887 3.433-1.887 3.672 0 4.347 2.418 4.347 5.559V27.5h-.004z" fill="#F9F9F9"/></svg>